<svg width="45" height="90" viewBox="0 0 45 90" fill="none" xmlns="http://www.w3.org/2000/svg">
<rect width="45" height="90" fill="black"/>
<path d="M30.75 11H13.25C12.2554 11 11.3016 11.3951 10.5983 12.0983C9.89509 12.8016 9.5 13.7554 9.5 14.75V27.25C9.5 28.2446 9.89509 29.1984 10.5983 29.9017C11.3016 30.6049 12.2554 31 13.25 31H30.75C31.7446 31 32.6984 30.6049 33.4016 29.9017C34.1049 29.1984 34.5 28.2446 34.5 27.25V14.75C34.5 13.7554 34.1049 12.8016 33.4016 12.0983C32.6984 11.3951 31.7446 11 30.75 11ZM29.9125 13.5L22 19.4375L14.0875 13.5H29.9125ZM30.75 28.5H13.25C12.9185 28.5 12.6005 28.3683 12.3661 28.1339C12.1317 27.8995 12 27.5815 12 27.25V15.0625L21.25 22C21.4664 22.1623 21.7295 22.25 22 22.25C22.2705 22.25 22.5336 22.1623 22.75 22L32 15.0625V27.25C32 27.5815 31.8683 27.8995 31.6339 28.1339C31.3995 28.3683 31.0815 28.5 30.75 28.5Z" fill="white"/>
<path d="M28.3167 59L22.3333 64.9833L16.35 59L14 61.35L19.9833 67.3333L14 73.3167L16.35 75.6667L22.3333 69.6833L28.3167 75.6667L30.6667 73.3167L24.6833 67.3333L30.6667 61.35L28.3167 59Z" fill="white"/>
</svg>
