<svg width="36" height="36" viewBox="0 0 36 36" fill="none" xmlns="http://www.w3.org/2000/svg">
<g filter="url(#filter0_d_2_62)">
<path fill-rule="evenodd" clip-rule="evenodd" d="M12.0813 0.0825C13.5475 0.015 14.015 0 17.75 0C21.485 0 21.9525 0.01625 23.4175 0.0825C24.8825 0.14875 25.8825 0.3825 26.7575 0.72125C27.6737 1.0675 28.505 1.60875 29.1925 2.30875C29.8925 2.995 30.4325 3.825 30.7775 4.7425C31.1175 5.6175 31.35 6.6175 31.4175 8.08C31.485 9.54875 31.5 10.0162 31.5 13.75C31.5 17.485 31.4837 17.9525 31.4175 19.4188C31.3512 20.8813 31.1175 21.8813 30.7775 22.7563C30.4325 23.6739 29.8916 24.5052 29.1925 25.1925C28.505 25.8925 27.6737 26.4325 26.7575 26.7775C25.8825 27.1175 24.8825 27.35 23.42 27.4175C21.9525 27.485 21.485 27.5 17.75 27.5C14.015 27.5 13.5475 27.4837 12.0813 27.4175C10.6188 27.3512 9.61875 27.1175 8.74375 26.7775C7.82615 26.4325 6.99478 25.8916 6.3075 25.1925C5.60797 24.5058 5.06664 23.6749 4.72125 22.7575C4.3825 21.8825 4.15 20.8825 4.0825 19.42C4.015 17.9513 4 17.4837 4 13.75C4 10.015 4.01625 9.5475 4.0825 8.0825C4.14875 6.6175 4.3825 5.6175 4.72125 4.7425C5.06715 3.8251 5.6089 2.99414 6.30875 2.3075C6.99505 1.60813 7.82559 1.0668 8.7425 0.72125C9.6175 0.3825 10.6175 0.15 12.08 0.0825H12.0813ZM23.3062 2.5575C21.8562 2.49125 21.4212 2.4775 17.75 2.4775C14.0787 2.4775 13.6438 2.49125 12.1937 2.5575C10.8525 2.61875 10.125 2.8425 9.64 3.03125C8.99875 3.28125 8.54 3.5775 8.05875 4.05875C7.60256 4.50256 7.25148 5.04285 7.03125 5.64C6.8425 6.125 6.61875 6.8525 6.5575 8.19375C6.49125 9.64375 6.4775 10.0787 6.4775 13.75C6.4775 17.4212 6.49125 17.8562 6.5575 19.3062C6.61875 20.6475 6.8425 21.375 7.03125 21.86C7.25125 22.4563 7.6025 22.9975 8.05875 23.4412C8.5025 23.8975 9.04375 24.2488 9.64 24.4688C10.125 24.6575 10.8525 24.8813 12.1937 24.9425C13.6438 25.0088 14.0775 25.0225 17.75 25.0225C21.4225 25.0225 21.8562 25.0088 23.3062 24.9425C24.6475 24.8813 25.375 24.6575 25.86 24.4688C26.5013 24.2188 26.96 23.9225 27.4412 23.4412C27.8975 22.9975 28.2488 22.4563 28.4688 21.86C28.6575 21.375 28.8813 20.6475 28.9425 19.3062C29.0088 17.8562 29.0225 17.4212 29.0225 13.75C29.0225 10.0787 29.0088 9.64375 28.9425 8.19375C28.8813 6.8525 28.6575 6.125 28.4688 5.64C28.2188 4.99875 27.9225 4.54 27.4412 4.05875C26.9974 3.60259 26.4571 3.25151 25.86 3.03125C25.375 2.8425 24.6475 2.61875 23.3062 2.5575ZM15.9938 17.9888C16.9746 18.397 18.0667 18.4521 19.0837 18.1447C20.1006 17.8372 20.9792 17.1861 21.5695 16.3028C22.1598 15.4195 22.4251 14.3586 22.3201 13.3014C22.215 12.2442 21.7463 11.2562 20.9937 10.5062C20.514 10.0268 19.934 9.65977 19.2954 9.43143C18.6568 9.2031 17.9755 9.1192 17.3006 9.18577C16.6257 9.25234 15.9739 9.46772 15.3923 9.81641C14.8106 10.1651 14.3134 10.6384 13.9366 11.2023C13.5598 11.7662 13.3127 12.4066 13.2131 13.0775C13.1136 13.7483 13.1639 14.4329 13.3607 15.0819C13.5574 15.7309 13.8956 16.3283 14.3509 16.8309C14.8062 17.3335 15.3673 17.729 15.9938 17.9888ZM12.7525 8.7525C13.4088 8.09622 14.1879 7.57563 15.0454 7.22045C15.9028 6.86527 16.8219 6.68247 17.75 6.68247C18.6781 6.68247 19.5972 6.86527 20.4546 7.22045C21.3121 7.57563 22.0912 8.09622 22.7475 8.7525C23.4038 9.40878 23.9244 10.1879 24.2795 11.0454C24.6347 11.9028 24.8175 12.8219 24.8175 13.75C24.8175 14.6781 24.6347 15.5972 24.2795 16.4546C23.9244 17.3121 23.4038 18.0912 22.7475 18.7475C21.4221 20.0729 19.6244 20.8175 17.75 20.8175C15.8756 20.8175 14.0779 20.0729 12.7525 18.7475C11.4271 17.4221 10.6825 15.6244 10.6825 13.75C10.6825 11.8756 11.4271 10.0779 12.7525 8.7525ZM26.385 7.735C26.5476 7.58159 26.6778 7.3971 26.7679 7.19247C26.8579 6.98783 26.906 6.76721 26.9093 6.54366C26.9125 6.32011 26.8709 6.09818 26.7869 5.89101C26.7028 5.68384 26.578 5.49564 26.42 5.33755C26.2619 5.17946 26.0737 5.0547 25.8665 4.97065C25.6593 4.8866 25.4374 4.84497 25.2138 4.84823C24.9903 4.85149 24.7697 4.89957 24.565 4.98962C24.3604 5.07967 24.1759 5.20987 24.0225 5.3725C23.7241 5.68879 23.5608 6.1089 23.5671 6.54366C23.5735 6.97842 23.749 7.3936 24.0564 7.70105C24.3639 8.00851 24.7791 8.18404 25.2138 8.19037C25.6486 8.19671 26.0687 8.03336 26.385 7.735Z" fill="white"/>
</g>
<defs>
<filter id="filter0_d_2_62" x="0" y="0" width="35.5" height="35.5" filterUnits="userSpaceOnUse" color-interpolation-filters="sRGB">
<feFlood flood-opacity="0" result="BackgroundImageFix"/>
<feColorMatrix in="SourceAlpha" type="matrix" values="0 0 0 0 0 0 0 0 0 0 0 0 0 0 0 0 0 0 127 0" result="hardAlpha"/>
<feOffset dy="4"/>
<feGaussianBlur stdDeviation="2"/>
<feComposite in2="hardAlpha" operator="out"/>
<feColorMatrix type="matrix" values="0 0 0 0 0 0 0 0 0 0 0 0 0 0 0 0 0 0 0.25 0"/>
<feBlend mode="normal" in2="BackgroundImageFix" result="effect1_dropShadow_2_62"/>
<feBlend mode="normal" in="SourceGraphic" in2="effect1_dropShadow_2_62" result="shape"/>
</filter>
</defs>
</svg>
